<mxfile host="app.diagrams.net" modified="2023-11-06T20:05:23.316Z" agent="Mozilla/5.0 (Windows NT 10.0; Win64; x64) AppleWebKit/537.36 (KHTML, like Gecko) Chrome/118.0.0.0 Safari/537.36" etag="S8834zodjGow0U5iXnAY" version="22.0.8" type="device">
  <diagram name="Trang-1" id="gTJ5zbdRRsc5l3p_hHVm">
    <mxGraphModel dx="1434" dy="796" grid="1" gridSize="10" guides="1" tooltips="1" connect="1" arrows="1" fold="1" page="1" pageScale="1" pageWidth="827" pageHeight="1169" math="0" shadow="0">
      <root>
        <mxCell id="0" />
        <mxCell id="1" parent="0" />
        <mxCell id="6b9hPBm_krvG66a4pEHw-1" style="edgeStyle=orthogonalEdgeStyle;rounded=0;orthogonalLoop=1;jettySize=auto;html=1;exitX=0.5;exitY=1;exitDx=0;exitDy=0;entryX=0.5;entryY=0;entryDx=0;entryDy=0;" edge="1" parent="1" source="6b9hPBm_krvG66a4pEHw-2" target="6b9hPBm_krvG66a4pEHw-4">
          <mxGeometry relative="1" as="geometry" />
        </mxCell>
        <mxCell id="6b9hPBm_krvG66a4pEHw-2" value="Start" style="ellipse;whiteSpace=wrap;html=1;" vertex="1" parent="1">
          <mxGeometry x="354" width="120" height="80" as="geometry" />
        </mxCell>
        <mxCell id="6b9hPBm_krvG66a4pEHw-3" style="edgeStyle=orthogonalEdgeStyle;rounded=0;orthogonalLoop=1;jettySize=auto;html=1;exitX=0.5;exitY=1;exitDx=0;exitDy=0;entryX=0.5;entryY=0;entryDx=0;entryDy=0;" edge="1" parent="1" source="6b9hPBm_krvG66a4pEHw-4">
          <mxGeometry relative="1" as="geometry">
            <mxPoint x="414" y="220" as="targetPoint" />
          </mxGeometry>
        </mxCell>
        <mxCell id="6b9hPBm_krvG66a4pEHw-4" value="a=5&lt;br&gt;b=6&lt;br&gt;c=7" style="shape=parallelogram;perimeter=parallelogramPerimeter;whiteSpace=wrap;html=1;fixedSize=1;" vertex="1" parent="1">
          <mxGeometry x="354" y="120" width="120" height="60" as="geometry" />
        </mxCell>
        <mxCell id="6b9hPBm_krvG66a4pEHw-5" value="" style="edgeStyle=orthogonalEdgeStyle;rounded=0;orthogonalLoop=1;jettySize=auto;html=1;" edge="1" parent="1" source="6b9hPBm_krvG66a4pEHw-6" target="6b9hPBm_krvG66a4pEHw-8">
          <mxGeometry relative="1" as="geometry" />
        </mxCell>
        <mxCell id="6b9hPBm_krvG66a4pEHw-6" value="i1=c&lt;br&gt;i2=a" style="rounded=0;whiteSpace=wrap;html=1;" vertex="1" parent="1">
          <mxGeometry x="354" y="220" width="120" height="60" as="geometry" />
        </mxCell>
        <mxCell id="6b9hPBm_krvG66a4pEHw-7" value="" style="edgeStyle=orthogonalEdgeStyle;rounded=0;orthogonalLoop=1;jettySize=auto;html=1;" edge="1" parent="1" source="6b9hPBm_krvG66a4pEHw-8" target="6b9hPBm_krvG66a4pEHw-9">
          <mxGeometry relative="1" as="geometry" />
        </mxCell>
        <mxCell id="6b9hPBm_krvG66a4pEHw-8" value="abc" style="shape=parallelogram;perimeter=parallelogramPerimeter;whiteSpace=wrap;html=1;fixedSize=1;" vertex="1" parent="1">
          <mxGeometry x="354" y="330" width="120" height="60" as="geometry" />
        </mxCell>
        <mxCell id="6b9hPBm_krvG66a4pEHw-9" value="End" style="ellipse;whiteSpace=wrap;html=1;" vertex="1" parent="1">
          <mxGeometry x="354" y="450" width="120" height="80" as="geometry" />
        </mxCell>
      </root>
    </mxGraphModel>
  </diagram>
</mxfile>
